<svg fill="#464e7e" xmlns="http://www.w3.org/2000/svg" viewBox="0 0 80 80"><path class="st0" d="M56.1 55.9H24V23.8l21-21c-1.6-.2-3.3-.3-5-.3C19.2 2.4 2.4 19.2 2.4 40S19.2 77.6 40 77.6 77.6 60.8 77.6 40c0-1.8-.1-3.5-.4-5.2L56.1 55.9z"/><path class="st0" d="M40.9 50.9H29.5V27h11.1c4.9 0 7.9 2.4 7.9 6.2v.1c0 2.7-1.4 4.2-3.1 5.2 2.8 1.1 4.5 2.7 4.5 5.9v.1c-.1 4.3-3.6 6.4-9 6.4zm2.3-16.8c0-1.6-1.2-2.5-3.5-2.5h-5.2v5.1h4.9c2.4 0 3.8-.8 3.8-2.6zm1.4 9.6c0-1.6-1.2-2.6-3.9-2.6h-6.1v5.3h6.3c2.3-.1 3.7-.9 3.7-2.7z"/></svg>