<svg fill="#464e7e" version="1.1" id="Layer_1" xmlns="http://www.w3.org/2000/svg" xmlns:xlink="http://www.w3.org/1999/xlink" x="0px" y="0px" viewBox="0 0 80 80" style="opacity: 1;" xml:space="preserve">
	<g>
		<path class="st0" d="M56.1,55.9H24V23.8l21-21c-1.6-0.2-3.3-0.3-5-0.3C19.2,2.4,2.4,19.2,2.4,40S19.2,77.6,40,77.6
			S77.6,60.8,77.6,40c0-1.8-0.1-3.5-0.4-5.2L56.1,55.9z"></path>
		<g>
			<path class="st0" d="M40.9,50.9H29.5V27h11.1c4.9,0,7.9,2.4,7.9,6.2v0.1c0,2.7-1.4,4.2-3.1,5.2c2.8,1.1,4.5,2.7,4.5,5.9v0.1
				C49.8,48.8,46.3,50.9,40.9,50.9z M43.2,34.1c0-1.6-1.2-2.5-3.5-2.5h-5.2v5.1h4.9C41.8,36.7,43.2,35.9,43.2,34.1L43.2,34.1z
				 M44.6,43.7c0-1.6-1.2-2.6-3.9-2.6h-6.1v5.3h6.3C43.2,46.3,44.6,45.5,44.6,43.7L44.6,43.7z"></path>
		</g>
	</g>
</svg>