<svg fill="#97d700" version="1.1" id="Layer_2" xmlns="http://www.w3.org/2000/svg" xmlns:xlink="http://www.w3.org/1999/xlink" x="0px" y="0px" viewBox="0 0 80 80" style="opacity:1;enable-background:new 0 0 80 80;" xml:space="preserve">

	<g>
		<path class="st0" d="M2.4,40c0,20.8,16.8,37.6,37.6,37.6c1.7,0,3.4-0.1,5.1-0.4L24,56.1V24h32.2l21.1,21.1
		c0.2-1.7,0.4-3.4,0.4-5.1C77.6,19.2,60.8,2.4,40,2.4S2.4,19.2,2.4,40z"></path>
		<g>
			<path class="st0" d="M41.3,53.3c-7.2,0-12.5-5.5-12.5-12.5v-0.1c0-6.9,5.2-12.6,12.7-12.6c4.6,0,7.3,1.5,9.6,3.8l-3.4,3.9
			c-1.9-1.7-3.8-2.7-6.2-2.7c-4.1,0-7.1,3.4-7.1,7.6v0.1c0,4.2,2.9,7.6,7.1,7.6c2.8,0,4.5-1.1,6.4-2.8l3.4,3.4
			C48.7,51.6,46,53.3,41.3,53.3z"></path>
		</g>
	</g>
</svg>