<svg fill="#2dccd3" version="1.1" id="Layer_3" xmlns="http://www.w3.org/2000/svg" xmlns:xlink="http://www.w3.org/1999/xlink" x="0px" y="0px" viewBox="0 0 80 80" style="opacity: 1;" xml:space="preserve">
	<g>
		<path class="st0" d="M56,23.9V56H23.9L2.7,34.9c-1.5,11.2,2,23,10.7,31.7c14.7,14.7,38.5,14.7,53.2,0c14.7-14.7,14.7-38.5,0-53.2
			C57.9,4.8,46.2,1.2,34.9,2.7L56,23.9z"></path>
		<g>
			<path class="st0" d="M39.8,44.1h-4v7.2h-5.3V27.3h9.8c5.7,0,9.2,3.4,9.2,8.3v0.1C49.5,41.2,45.2,44.1,39.8,44.1z M44.1,35.7
				c0-2.4-1.6-3.6-4.3-3.6h-4.1v7.3H40C42.6,39.4,44.1,37.8,44.1,35.7L44.1,35.7z"></path>
		</g>
	</g>
</svg>