<svg width="24" height="24" xmlns="http://www.w3.org/2000/svg"><g fill="none" fill-rule="evenodd"><path d="M.543 11H.04C.522 5.17 5.171.522 11 .041v.502C5.447 1.02 1.021 5.447.543 11z" fill="#97D700"/><path d="M13 .543V.04C18.83.522 23.478 5.171 23.959 11h-.502C22.98 5.447 18.553 1.021 13 .543z" fill="#147BD1"/><path d="M23.457 13h.502c-.481 5.83-5.13 10.478-10.959 10.959v-.502c5.553-.478 9.979-4.904 10.457-10.457z" fill="#2DCCD3"/><path d="M.543 13H.04C.522 18.83 5.171 23.478 11 23.959v-.502C5.447 22.98 1.021 18.553.543 13z" fill="#464E7E"/><circle fill="#2E393F" cx="12" cy="12" r="10"/><path d="M12.216 13.388h-1.092V16.4H9V8h3.864c1.788.012 2.736.996 2.736 2.664 0 1.176-.468 2.076-1.44 2.484l1.728 3.252H13.62l-1.404-3.012zm-1.092-1.596h1.128c.78 0 1.188-.324 1.188-1.116 0-.78-.408-1.092-1.188-1.092h-1.128v2.208z" fill="#FFF"/></g></svg>